<?xml version="1.0" encoding="iso-8859-1"?>
<!-- Generator: Adobe Illustrator 19.0.0, SVG Export Plug-In . SVG Version: 6.00 Build 0)  -->
<svg version="1.1" id="Capa_1" xmlns="http://www.w3.org/2000/svg" xmlns:xlink="http://www.w3.org/1999/xlink" x="0px" y="0px"
	 viewBox="0 0 469.334 469.334" style="enable-background:new 0 0 469.334 469.334;" xml:space="preserve">
<path style="fill:#5628B4;" d="M42.667,0h383.996c23.564,0,42.667,19.103,42.667,42.667v383.996
	c0,23.564-19.103,42.667-42.667,42.667H42.667C19.103,469.33,0,450.227,0,426.663V42.667C0,19.103,19.103,0,42.667,0z"/>
<path style="fill:#3D068C;" d="M21.333,85.337h426.664c11.782,0,21.333,9.551,21.333,21.333v0.001
	c0,11.782-9.551,21.333-21.333,21.333H21.333C9.551,128.004,0,118.453,0,106.671v-0.001C0,94.888,9.551,85.337,21.333,85.337z"/>
<path style="fill:#DFD2F2;" d="M42.667,0h384c23.564,0,42.667,19.103,42.667,42.667c0,0,0,0,0,0v64l0,0H0l0,0v-64
	C0,19.103,19.103,0,42.667,0L42.667,0L42.667,0z"/>
<path style="fill:#EEE7F8;" d="M42.667,0h384.004c11.782,0,21.333,9.551,21.333,21.333v0.001c0,11.782-9.551,21.333-21.333,21.333
	H42.667c-11.782,0-21.333-9.551-21.333-21.333v-0.001C21.334,9.551,30.885,0,42.667,0z"/>
<path style="fill:#B8A4DF;" d="M117.334,149.337H416c5.891,0,10.667,4.776,10.667,10.667v0c0,5.891-4.776,10.667-10.667,10.667
	H117.334c-5.891,0-10.667-4.776-10.667-10.667v0C106.667,154.113,111.443,149.337,117.334,149.337z"/>
<path style="fill:#F7B236;" d="M117.334,191.997H224c5.891,0,10.667,4.776,10.667,10.667v0c0,5.891-4.776,10.667-10.667,10.667
	H117.334c-5.891,0-10.667-4.776-10.667-10.667v0C106.667,196.773,111.443,191.997,117.334,191.997z"/>
<path style="fill:#B8A4DF;" d="M117.334,234.667H224c5.891,0,10.667,4.776,10.667,10.667l0,0c0,5.891-4.776,10.666-10.667,10.666
	H117.334c-5.891,0-10.667-4.776-10.667-10.666l0,0C106.667,239.443,111.443,234.667,117.334,234.667z"/>
<g>
	<path style="fill:#7F5CC6;" d="M117.334,319.997H160c5.891,0,10.667,4.776,10.667,10.667l0,0c0,5.891-4.776,10.667-10.667,10.667
		h-42.666c-5.891,0-10.667-4.776-10.667-10.667l0,0C106.667,324.773,111.443,319.997,117.334,319.997z"/>
	<path style="fill:#7F5CC6;" d="M117.334,277.337H160c5.891,0,10.667,4.776,10.667,10.667l0,0c0,5.891-4.776,10.667-10.667,10.667
		h-42.666c-5.891,0-10.667-4.776-10.667-10.667l0,0C106.667,282.113,111.443,277.337,117.334,277.337z"/>
</g>
<g>
	<path style="fill:#D80E70;" d="M53.334,405.337h21.333c5.891,0,10.667,4.776,10.667,10.667l0,0c0,5.891-4.776,10.667-10.667,10.667
		H53.334c-5.891,0-10.667-4.776-10.667-10.667l0,0C42.667,410.113,47.443,405.337,53.334,405.337z"/>
	<path style="fill:#D80E70;" d="M53.334,362.667h21.333c5.891,0,10.667,4.776,10.667,10.667l0,0c0,5.891-4.776,10.667-10.667,10.667
		H53.334c-5.891,0-10.667-4.776-10.667-10.667l0,0C42.667,367.443,47.443,362.667,53.334,362.667z"/>
	<path style="fill:#D80E70;" d="M53.334,277.337h21.333c5.891,0,10.667,4.776,10.667,10.667l0,0c0,5.891-4.776,10.667-10.667,10.667
		H53.334c-5.891,0-10.667-4.776-10.667-10.667l0,0C42.667,282.113,47.443,277.337,53.334,277.337z"/>
	<path style="fill:#D80E70;" d="M53.334,319.997h21.333c5.891,0,10.667,4.776,10.667,10.667l0,0c0,5.891-4.776,10.667-10.667,10.667
		H53.334c-5.891,0-10.667-4.776-10.667-10.667l0,0C42.667,324.773,47.443,319.997,53.334,319.997z"/>
	<path style="fill:#D80E70;" d="M53.334,234.667h21.333c5.891,0,10.667,4.776,10.667,10.667l0,0c0,5.891-4.776,10.666-10.667,10.666
		H53.334c-5.891,0-10.667-4.776-10.667-10.666l0,0C42.667,239.443,47.443,234.667,53.334,234.667z"/>
	<path style="fill:#D80E70;" d="M53.334,191.997h21.333c5.891,0,10.667,4.776,10.667,10.667v0c0,5.891-4.776,10.667-10.667,10.667
		H53.334c-5.891,0-10.667-4.776-10.667-10.667v0C42.667,196.773,47.443,191.997,53.334,191.997z"/>
	<path style="fill:#D80E70;" d="M53.334,149.337h21.333c5.891,0,10.667,4.776,10.667,10.667v0c0,5.891-4.776,10.667-10.667,10.667
		H53.334c-5.891,0-10.667-4.776-10.667-10.667v0C42.667,154.113,47.443,149.337,53.334,149.337z"/>
</g>
<path style="fill:#7F5CC6;" d="M117.334,405.337h21.333c5.891,0,10.667,4.776,10.667,10.667l0,0c0,5.891-4.776,10.667-10.667,10.667
	h-21.333c-5.891,0-10.667-4.776-10.667-10.667l0,0C106.667,410.113,111.443,405.337,117.334,405.337z"/>
<g>
	<path style="fill:#B8A4DF;" d="M117.334,362.667h63.996c5.891,0,10.667,4.776,10.667,10.667l0,0
		c0,5.891-4.776,10.667-10.667,10.667h-63.996c-5.891,0-10.667-4.776-10.667-10.667l0,0
		C106.667,367.443,111.443,362.667,117.334,362.667z"/>
	<path style="fill:#B8A4DF;" d="M224.004,362.667H288c5.891,0,10.667,4.776,10.667,10.667l0,0c0,5.891-4.776,10.667-10.667,10.667
		h-63.996c-5.891,0-10.667-4.776-10.667-10.667l0,0C213.337,367.443,218.113,362.667,224.004,362.667z"/>
	<path style="fill:#B8A4DF;" d="M266.664,234.667H373.33c5.891,0,10.667,4.776,10.667,10.667l0,0
		c0,5.891-4.776,10.666-10.667,10.666H266.664c-5.891,0-10.667-4.776-10.667-10.666l0,0
		C255.997,239.443,260.773,234.667,266.664,234.667z"/>
</g>
<circle style="fill:#F7B236;" cx="53.337" cy="53.337" r="10.667"/>
<circle style="fill:#420FAB;" cx="95.997" cy="53.337" r="10.667"/>
<circle style="fill:#D80E70;" cx="138.667" cy="53.337" r="10.667"/>
<path style="fill:#C6AFE8;" d="M32.001,85.337h405.336c5.891,0,10.667,4.776,10.667,10.667v0c0,5.891-4.776,10.667-10.667,10.667
	H32.001c-5.891,0-10.667-4.776-10.667-10.667v0C21.334,90.113,26.11,85.337,32.001,85.337z"/>
<path style="fill:#3D068C;" d="M458.667,149.334c-5.891,0-10.667,4.775-10.667,10.666c0,0,0,0,0,0.001v266.667
	c0,11.782-9.551,21.333-21.333,21.333H309.334c-5.891,0-10.667,4.776-10.667,10.667c0,5.891,4.776,10.667,10.667,10.667h117.333
	c23.564,0,42.666-19.103,42.667-42.667V160C469.334,154.109,464.558,149.334,458.667,149.334
	C458.667,149.334,458.667,149.334,458.667,149.334L458.667,149.334z"/>
<path style="fill:#7047BF;" d="M10.667,191.997L10.667,191.997c5.891,0,10.667,4.776,10.667,10.667V373.33
	c0,5.891-4.776,10.667-10.667,10.667l0,0C4.776,383.997,0,379.221,0,373.33V202.664C0,196.773,4.776,191.997,10.667,191.997z"/>
<g>
</g>
<g>
</g>
<g>
</g>
<g>
</g>
<g>
</g>
<g>
</g>
<g>
</g>
<g>
</g>
<g>
</g>
<g>
</g>
<g>
</g>
<g>
</g>
<g>
</g>
<g>
</g>
<g>
</g>
</svg>
