<?xml version="1.0" encoding="iso-8859-1"?>
<!-- Generator: Adobe Illustrator 19.0.0, SVG Export Plug-In . SVG Version: 6.00 Build 0)  -->
<svg version="1.1" id="Capa_1" xmlns="http://www.w3.org/2000/svg" xmlns:xlink="http://www.w3.org/1999/xlink" x="0px" y="0px"
	 viewBox="0 0 512 512" style="enable-background:new 0 0 512 512;" xml:space="preserve">
<path style="fill:#303C42;" d="M512,256C512,114.844,397.167,0,256,0S0,114.844,0,256c0,69.727,30.309,121.482,89.641,154.245
	C101.427,492.888,137.385,512,256,512c115.302,0,152.566-17.882,165.385-94.788C481.357,386.198,512,332.13,512,256z"/>
<path id="SVGCleanerId_0" style="fill:#F2F2F2;" d="M488.715,285.333C463.018,261.271,448,227.522,448,192
	c0-18.168,3.918-36.04,11.402-52.533c19.776,34.38,31.264,74.103,31.264,116.533C490.667,266.32,489.895,275.995,488.715,285.333z"
	/>
<g>
	<circle style="fill:#F2F2F2;" cx="256" cy="149.333" r="106.667"/>
	<path style="fill:#F2F2F2;" d="M52.598,139.467C60.082,155.96,64,173.832,64,192c0,35.251-14.844,68.836-40.258,92.868
		c-1.428-9.247-2.409-18.764-2.409-28.868C21.333,213.57,32.822,173.848,52.598,139.467z"/>
</g>
<path style="fill:#FEE4D0;" d="M256,490.667c-124.896,0-140.979-20.281-147.854-106.24c30.708-33.25,86.833-53.76,147.854-53.76
	s117.146,20.51,147.854,53.76C396.979,470.385,380.896,490.667,256,490.667z"/>
<path id="SVGCleanerId_1" style="fill:#D32F2F;" d="M424.6,390.984c0.292-3.152,0.632-6.142,0.879-9.453
	c0.208-2.802-0.708-5.573-2.521-7.719c-33.938-39.771-97.917-64.479-166.958-64.479s-133.021,24.708-166.958,64.479
	c-1.813,2.146-2.729,4.917-2.521,7.719c0.057,0.76,0.143,1.418,0.202,2.169c-28.641-19.128-47.729-44.467-57.525-75.514
	C64.376,279.922,85.333,237.188,85.333,192c0-25.608-6.943-50.56-19.53-72.911c40.25-55.755,104.251-93.048,177.122-97.092
	C178.461,28.566,128,83.163,128,149.333c0,70.583,57.417,128,128,128s128-57.417,128-128c0-66.171-50.461-120.767-114.926-127.337
	c72.871,4.044,136.872,41.337,177.122,97.092c-12.587,22.352-19.53,47.303-19.53,72.911c0,45.802,21.447,88.967,57.414,117.219
	C474.721,344.57,455.074,371.674,424.6,390.984z"/>
<g>
	<path id="SVGCleanerId_0_1_" style="fill:#F2F2F2;" d="M488.715,285.333C463.018,261.271,448,227.522,448,192
		c0-18.168,3.918-36.04,11.402-52.533c19.776,34.38,31.264,74.103,31.264,116.533C490.667,266.32,489.895,275.995,488.715,285.333z"
		/>
</g>
<g>
	<path id="SVGCleanerId_1_1_" style="fill:#D32F2F;" d="M424.6,390.984c0.292-3.152,0.632-6.142,0.879-9.453
		c0.208-2.802-0.708-5.573-2.521-7.719c-33.938-39.771-97.917-64.479-166.958-64.479s-133.021,24.708-166.958,64.479
		c-1.813,2.146-2.729,4.917-2.521,7.719c0.057,0.76,0.143,1.418,0.202,2.169c-28.641-19.128-47.729-44.467-57.525-75.514
		C64.376,279.922,85.333,237.188,85.333,192c0-25.608-6.943-50.56-19.53-72.911c40.25-55.755,104.251-93.048,177.122-97.092
		C178.461,28.566,128,83.163,128,149.333c0,70.583,57.417,128,128,128s128-57.417,128-128c0-66.171-50.461-120.767-114.926-127.337
		c72.871,4.044,136.872,41.337,177.122,97.092c-12.587,22.352-19.53,47.303-19.53,72.911c0,45.802,21.447,88.967,57.414,117.219
		C474.721,344.57,455.074,371.674,424.6,390.984z"/>
</g>
<linearGradient id="SVGID_1_" gradientUnits="userSpaceOnUse" x1="-38.17" y1="631.9341" x2="-29.916" y2="623.6802" gradientTransform="matrix(21.3333 0 0 -21.3333 996.3334 13791.667)">
	<stop  offset="0" style="stop-color:#000000;stop-opacity:0.1"/>
	<stop  offset="1" style="stop-color:#000000;stop-opacity:0"/>
</linearGradient>
<path style="fill:url(#SVGID_1_);" d="M256,490.667c124.896,0,140.979-20.281,147.854-106.24
	c-30.708-33.25-86.833-53.76-147.854-53.76s-117.146,20.51-147.854,53.76l105.138,105.138
	C225.9,490.323,240.036,490.667,256,490.667z"/>
<g>
	<path style="fill:#303C42;" d="M197.333,362.667c-8.313,0-16,5.167-16,42.667s7.688,42.667,16,42.667s16-5.167,16-42.667
		S205.646,362.667,197.333,362.667z"/>
	<path style="fill:#303C42;" d="M314.667,448c8.313,0,16-5.167,16-42.667s-7.688-42.667-16-42.667s-16,5.167-16,42.667
		S306.354,448,314.667,448z"/>
</g>
<linearGradient id="SVGID_2_" gradientUnits="userSpaceOnUse" x1="-45.6828" y1="639.3315" x2="-24.0589" y2="629.2485" gradientTransform="matrix(21.3333 0 0 -21.3333 996.3334 13791.667)">
	<stop  offset="0" style="stop-color:#FFFFFF;stop-opacity:0.2"/>
	<stop  offset="1" style="stop-color:#FFFFFF;stop-opacity:0"/>
</linearGradient>
<path style="fill:url(#SVGID_2_);" d="M512,256C512,114.844,397.167,0,256,0S0,114.844,0,256
	c0,69.727,30.309,121.482,89.641,154.245C101.427,492.888,137.385,512,256,512c115.302,0,152.566-17.882,165.385-94.788
	C481.357,386.198,512,332.13,512,256z"/>
<path style="opacity:0.1;enable-background:new    ;" d="M23.742,284.868c3.85-3.642,7.37-7.566,10.72-11.618
	c-4.297-1.536-8.4-3.263-12.57-4.923C22.314,273.957,22.91,279.483,23.742,284.868z"/>
<path style="opacity:0.1;enable-background:new    ;" d="M449.07,207.586c3.703,29.678,17.746,57.241,39.645,77.747
	c1.18-9.339,1.952-19.013,1.952-29.333c0-28.292-5.501-55.197-14.768-80.301C468.435,186.889,459.408,197.536,449.07,207.586z"/>
<path style="opacity:0.1;enable-background:new    ;" d="M55.904,280.103c-7.65,10.348-16.496,19.88-26.706,28.083
	c9.796,31.047,28.884,56.387,57.525,75.514c-0.059-0.751-0.145-1.409-0.202-2.169c-0.208-2.802,0.708-5.573,2.521-7.719
	c33.938-39.771,97.917-64.479,166.958-64.479s133.021,24.708,166.958,64.479c1.813,2.146,2.729,4.917,2.521,7.719
	c-0.247,3.311-0.587,6.301-0.879,9.453c30.474-19.31,50.121-46.414,59.48-81.766c-27.411-21.531-46.306-51.745-53.784-85.165
	c-57.753,45.495-145.493,74.613-243.63,74.613C139.979,298.667,95.789,291.905,55.904,280.103z"/>
<g>
</g>
<g>
</g>
<g>
</g>
<g>
</g>
<g>
</g>
<g>
</g>
<g>
</g>
<g>
</g>
<g>
</g>
<g>
</g>
<g>
</g>
<g>
</g>
<g>
</g>
<g>
</g>
<g>
</g>
</svg>
