<svg id="Capa_1" enable-background="new 0 0 512 512" height="512" viewBox="0 0 512 512" width="512" xmlns="http://www.w3.org/2000/svg"><g><path d="m65.207 85.333 190.793 25 29.018-66.282-29.018-44.051c-75.813 0-143.918 32.966-190.793 85.333z" fill="#fd445f"/><path d="m256 0v110.333l190.793-25c-46.875-52.367-114.979-85.333-190.793-85.333z" fill="#e1105a"/><g><path d="m65.207 426.667 190.793 48.392 22.519-87.884-22.519-87.884-241.413 42.042c11.241 31.799 28.579 60.711 50.62 85.334z" fill="#79e1f5"/><path d="m14.587 170.667c-9.435 26.692-14.587 55.409-14.587 85.333l256 33.212 22.519-75.566-22.519-80.594z" fill="#fff594"/></g><g><path d="m0 256c0 29.924 5.152 58.64 14.587 85.333h241.413l17.476-42.043-17.476-43.29z" fill="#1fc979"/><path d="m65.207 85.333c-22.041 24.623-39.38 53.535-50.62 85.333h241.413l22.519-42.666-22.519-42.667z" fill="#f8b400"/></g><path d="m446.793 426.667c22.041-24.623 39.379-53.535 50.62-85.333l-241.413-50.757v184.482z" fill="#31c3e7"/><path d="m512 256c0-29.924-5.152-58.641-14.587-85.333l-241.413-42.667v171.291z" fill="#fedd61"/><path d="m512 256h-256v85.333h241.413c9.435-26.692 14.587-55.409 14.587-85.333z" fill="#19a995"/><path d="m446.793 85.333h-190.793v85.333h241.413c-11.241-31.798-28.579-60.71-50.62-85.333z" fill="#fd9127"/><path d="m143.521 486.021c33.949 16.637 72.122 25.953 112.479 25.953l17.476-65.649-17.476-19.658h-190.793c21.922 24.49 48.488 44.738 78.314 59.354z" fill="#b782d7"/><path d="m343.295 496.725c40.126-14.559 75.578-38.867 103.498-70.058h-190.793v85.333c30.657 0 60.054-5.391 87.295-15.275z" fill="#9244c2"/><path d="m386.184 151.59c-31.454-31.454-82.633-31.45-114.085 0l-16.099 16.08-16.061-16.08c-31.452-31.454-82.631-31.453-114.085.001-15.237 15.236-23.628 35.494-23.628 57.043s8.391 41.806 23.628 57.043l130.146 130.164 130.183-130.165c31.455-31.453 31.455-82.632.001-114.086z" fill="#f1f8fc"/><g><g><path d="m239.939 151.59c-31.452-31.454-82.631-31.453-114.085.001-15.237 15.236-23.628 35.495-23.628 57.043s8.391 41.806 23.628 57.042l130.146 130.165 35.082-127.388-35.082-100.783z" fill="#f1f8fc"/></g><path d="m386.184 151.59c-31.454-31.454-82.633-31.45-114.085 0l-16.099 16.08v228.171l130.183-130.165c31.455-31.453 31.455-82.632.001-114.086z" fill="#cfe6f3"/></g></g></svg>