<?xml version="1.0" standalone="no"?>
<!DOCTYPE svg PUBLIC "-//W3C//DTD SVG 20010904//EN"
 "http://www.w3.org/TR/2001/REC-SVG-20010904/DTD/svg10.dtd">
<svg version="1.0" xmlns="http://www.w3.org/2000/svg"
 width="307.000000pt" height="307.000000pt" viewBox="0 0 307.000000 307.000000"
 preserveAspectRatio="xMidYMid meet">

<g transform="translate(0.000000,307.000000) scale(0.100000,-0.100000)"
fill="#000000" stroke="none">
<path d="M1030 2379 c-293 -187 -606 -406 -641 -448 -16 -20 -41 -59 -54 -88
-25 -51 -25 -56 -25 -308 l0 -256 29 -57 c16 -31 51 -78 78 -103 49 -46 153
-124 153 -113 0 3 -14 33 -32 67 -27 53 -32 73 -32 138 -1 106 20 136 173 238
65 44 121 84 123 88 5 12 79 65 308 218 113 75 217 148 232 162 50 47 60 95
56 250 -3 135 -4 139 -33 180 -43 60 -107 93 -182 93 -55 0 -65 -4 -153 -61z"/>
<path d="M1734 2408 c-80 -53 -94 -93 -94 -261 0 -189 10 -207 173 -315 43
-29 81 -52 86 -52 4 0 16 -9 26 -20 10 -11 24 -20 30 -20 7 0 18 -7 25 -15 11
-14 16 -12 34 11 12 15 36 45 55 68 19 23 50 65 69 94 19 28 39 52 43 52 5 0
9 5 9 10 0 12 67 102 99 136 12 12 21 26 21 33 0 6 5 11 10 11 34 0 -31 51
-288 224 l-113 76 -68 0 c-61 0 -74 -4 -117 -32z"/>
<path d="M2452 2074 c2 -5 21 -44 42 -87 35 -71 38 -83 33 -134 -9 -83 -42
-124 -176 -215 -63 -43 -122 -86 -133 -98 -10 -11 -99 -73 -196 -138 -354
-236 -345 -229 -375 -287 -19 -35 -22 -56 -22 -170 0 -146 10 -185 57 -234 72
-73 167 -91 249 -48 24 13 116 73 204 132 88 60 225 153 305 206 80 53 159
112 176 131 91 97 124 205 124 407 0 216 -35 329 -129 422 -52 52 -170 135
-159 113z"/>
<path d="M975 1300 c-30 -38 -55 -72 -55 -76 0 -4 -7 -14 -15 -23 -32 -34 -95
-119 -95 -130 0 -6 -4 -11 -10 -11 -5 0 -24 -25 -41 -55 -17 -31 -41 -62 -52
-70 -12 -8 -17 -15 -12 -15 8 0 220 -144 260 -177 23 -19 122 -80 148 -91 36
-15 108 -15 144 0 52 22 101 68 122 113 18 38 21 63 21 169 0 136 -14 189 -63
234 -29 27 -248 172 -259 172 -4 0 -8 4 -8 9 0 5 -7 11 -15 15 -10 3 -33 -17
-70 -64z"/>
</g>
</svg>
